<mxfile host="app.diagrams.net" agent="Mozilla/5.0 (Windows NT 10.0; Win64; x64) AppleWebKit/537.36 (KHTML, like Gecko) Chrome/118.0.0.0 Safari/537.36" version="26.0.11">
  <diagram id="6a731a19-8d31-9384-78a2-239565b7b9f0" name="Page-1">
    <mxGraphModel dx="2820" dy="887" grid="1" gridSize="10" guides="1" tooltips="1" connect="1" arrows="1" fold="1" page="1" pageScale="1" pageWidth="1169" pageHeight="827" background="#ffffff" math="0" shadow="0">
      <root>
        <mxCell id="0" />
        <mxCell id="1" parent="0" />
        <mxCell id="vj8uwGmvX59yETp1Blwc-106" style="edgeStyle=orthogonalEdgeStyle;rounded=0;hachureGap=4;orthogonalLoop=1;jettySize=auto;html=1;entryX=0.5;entryY=0;entryDx=0;entryDy=0;fontFamily=Architects Daughter;fontSource=https%3A%2F%2Ffonts.googleapis.com%2Fcss%3Ffamily%3DArchitects%2BDaughter;labelBackgroundColor=none;fontColor=default;" parent="1" source="vj8uwGmvX59yETp1Blwc-55" target="vj8uwGmvX59yETp1Blwc-60" edge="1">
          <mxGeometry relative="1" as="geometry" />
        </mxCell>
        <mxCell id="vj8uwGmvX59yETp1Blwc-55" value="&lt;div&gt;申请使用设备&lt;/div&gt;开始" style="rounded=0;whiteSpace=wrap;html=1;labelBackgroundColor=none;fillColor=#dae8fc;strokeColor=#6c8ebf;" parent="1" vertex="1">
          <mxGeometry x="250" y="80" width="120" height="60" as="geometry" />
        </mxCell>
        <mxCell id="vj8uwGmvX59yETp1Blwc-105" style="edgeStyle=orthogonalEdgeStyle;rounded=0;hachureGap=4;orthogonalLoop=1;jettySize=auto;html=1;exitX=0.5;exitY=1;exitDx=0;exitDy=0;entryX=0.5;entryY=0;entryDx=0;entryDy=0;fontFamily=Architects Daughter;fontSource=https%3A%2F%2Ffonts.googleapis.com%2Fcss%3Ffamily%3DArchitects%2BDaughter;labelBackgroundColor=none;fontColor=default;" parent="1" source="vj8uwGmvX59yETp1Blwc-60" target="vj8uwGmvX59yETp1Blwc-77" edge="1">
          <mxGeometry relative="1" as="geometry" />
        </mxCell>
        <mxCell id="vj8uwGmvX59yETp1Blwc-60" value="参数校验/角色等级校验" style="rounded=0;whiteSpace=wrap;html=1;labelBackgroundColor=none;fillColor=#f5f5f5;fontColor=#333333;strokeColor=#666666;" parent="1" vertex="1">
          <mxGeometry x="250" y="200" width="120" height="60" as="geometry" />
        </mxCell>
        <mxCell id="vj8uwGmvX59yETp1Blwc-99" style="edgeStyle=orthogonalEdgeStyle;rounded=0;hachureGap=4;orthogonalLoop=1;jettySize=auto;html=1;exitX=0.5;exitY=1;exitDx=0;exitDy=0;entryX=0.5;entryY=0;entryDx=0;entryDy=0;fontFamily=Architects Daughter;fontSource=https%3A%2F%2Ffonts.googleapis.com%2Fcss%3Ffamily%3DArchitects%2BDaughter;labelBackgroundColor=none;fontColor=default;" parent="1" source="vj8uwGmvX59yETp1Blwc-64" target="vj8uwGmvX59yETp1Blwc-76" edge="1">
          <mxGeometry relative="1" as="geometry" />
        </mxCell>
        <mxCell id="vj8uwGmvX59yETp1Blwc-100" value="是" style="edgeLabel;html=1;align=center;verticalAlign=middle;resizable=0;points=[];hachureGap=4;fontFamily=Architects Daughter;fontSource=https%3A%2F%2Ffonts.googleapis.com%2Fcss%3Ffamily%3DArchitects%2BDaughter;rounded=0;labelBackgroundColor=none;" parent="vj8uwGmvX59yETp1Blwc-99" vertex="1" connectable="0">
          <mxGeometry x="-0.2449" y="1" relative="1" as="geometry">
            <mxPoint as="offset" />
          </mxGeometry>
        </mxCell>
        <mxCell id="vj8uwGmvX59yETp1Blwc-101" style="edgeStyle=orthogonalEdgeStyle;rounded=0;hachureGap=4;orthogonalLoop=1;jettySize=auto;html=1;exitX=1;exitY=0.5;exitDx=0;exitDy=0;entryX=1;entryY=0.5;entryDx=0;entryDy=0;fontFamily=Architects Daughter;fontSource=https%3A%2F%2Ffonts.googleapis.com%2Fcss%3Ffamily%3DArchitects%2BDaughter;labelBackgroundColor=none;fontColor=default;" parent="1" source="vj8uwGmvX59yETp1Blwc-64" target="vj8uwGmvX59yETp1Blwc-79" edge="1">
          <mxGeometry relative="1" as="geometry" />
        </mxCell>
        <mxCell id="vj8uwGmvX59yETp1Blwc-102" value="否" style="edgeLabel;html=1;align=center;verticalAlign=middle;resizable=0;points=[];hachureGap=4;fontFamily=Architects Daughter;fontSource=https%3A%2F%2Ffonts.googleapis.com%2Fcss%3Ffamily%3DArchitects%2BDaughter;rounded=0;labelBackgroundColor=none;" parent="vj8uwGmvX59yETp1Blwc-101" vertex="1" connectable="0">
          <mxGeometry x="-0.0976" relative="1" as="geometry">
            <mxPoint as="offset" />
          </mxGeometry>
        </mxCell>
        <mxCell id="vj8uwGmvX59yETp1Blwc-64" value="申请的的时间覆盖的规则模板是否设置了区分职务" style="rhombus;whiteSpace=wrap;html=1;rounded=0;labelBackgroundColor=none;fillColor=#ffe6cc;strokeColor=#d79b00;" parent="1" vertex="1">
          <mxGeometry x="240" y="460" width="140" height="130" as="geometry" />
        </mxCell>
        <mxCell id="vj8uwGmvX59yETp1Blwc-98" style="edgeStyle=orthogonalEdgeStyle;rounded=0;hachureGap=4;orthogonalLoop=1;jettySize=auto;html=1;exitX=0.5;exitY=1;exitDx=0;exitDy=0;entryX=0.5;entryY=0;entryDx=0;entryDy=0;fontFamily=Architects Daughter;fontSource=https%3A%2F%2Ffonts.googleapis.com%2Fcss%3Ffamily%3DArchitects%2BDaughter;labelBackgroundColor=none;fontColor=default;" parent="1" source="vj8uwGmvX59yETp1Blwc-76" target="vj8uwGmvX59yETp1Blwc-79" edge="1">
          <mxGeometry relative="1" as="geometry" />
        </mxCell>
        <mxCell id="vj8uwGmvX59yETp1Blwc-76" value="校验用户对应职务操作设备的规则时间是否覆盖用户申请" style="rounded=0;whiteSpace=wrap;html=1;labelBackgroundColor=none;fillColor=#f5f5f5;fontColor=#333333;strokeColor=#666666;" parent="1" vertex="1">
          <mxGeometry x="250" y="650" width="120" height="70" as="geometry" />
        </mxCell>
        <mxCell id="vj8uwGmvX59yETp1Blwc-104" style="edgeStyle=orthogonalEdgeStyle;rounded=0;hachureGap=4;orthogonalLoop=1;jettySize=auto;html=1;entryX=0.5;entryY=0;entryDx=0;entryDy=0;fontFamily=Architects Daughter;fontSource=https%3A%2F%2Ffonts.googleapis.com%2Fcss%3Ffamily%3DArchitects%2BDaughter;labelBackgroundColor=none;fontColor=default;" parent="1" source="vj8uwGmvX59yETp1Blwc-77" target="vj8uwGmvX59yETp1Blwc-64" edge="1">
          <mxGeometry relative="1" as="geometry" />
        </mxCell>
        <mxCell id="vj8uwGmvX59yETp1Blwc-77" value="校验用户所在组织是否对应的设备规则时间是否覆盖用户申请范围" style="rounded=0;whiteSpace=wrap;html=1;labelBackgroundColor=none;fillColor=#f5f5f5;fontColor=#333333;strokeColor=#666666;" parent="1" vertex="1">
          <mxGeometry x="250" y="320" width="120" height="60" as="geometry" />
        </mxCell>
        <mxCell id="vj8uwGmvX59yETp1Blwc-107" style="edgeStyle=orthogonalEdgeStyle;rounded=0;hachureGap=4;orthogonalLoop=1;jettySize=auto;html=1;exitX=0.5;exitY=1;exitDx=0;exitDy=0;entryX=0.5;entryY=0;entryDx=0;entryDy=0;fontFamily=Architects Daughter;fontSource=https%3A%2F%2Ffonts.googleapis.com%2Fcss%3Ffamily%3DArchitects%2BDaughter;labelBackgroundColor=none;fontColor=default;" parent="1" source="vj8uwGmvX59yETp1Blwc-79" target="vj8uwGmvX59yETp1Blwc-93" edge="1">
          <mxGeometry relative="1" as="geometry" />
        </mxCell>
        <mxCell id="vj8uwGmvX59yETp1Blwc-79" value="校验用户同一权限下是否重复申请" style="rounded=0;whiteSpace=wrap;html=1;labelBackgroundColor=none;fillColor=#f5f5f5;fontColor=#333333;strokeColor=#666666;" parent="1" vertex="1">
          <mxGeometry x="250" y="800" width="120" height="70" as="geometry" />
        </mxCell>
        <mxCell id="vj8uwGmvX59yETp1Blwc-108" style="edgeStyle=orthogonalEdgeStyle;rounded=0;hachureGap=4;orthogonalLoop=1;jettySize=auto;html=1;exitX=0;exitY=0.5;exitDx=0;exitDy=0;fontFamily=Architects Daughter;fontSource=https%3A%2F%2Ffonts.googleapis.com%2Fcss%3Ffamily%3DArchitects%2BDaughter;labelBackgroundColor=none;fontColor=default;" parent="1" source="vj8uwGmvX59yETp1Blwc-93" edge="1">
          <mxGeometry relative="1" as="geometry">
            <mxPoint x="59.999999999999886" y="1120" as="targetPoint" />
          </mxGeometry>
        </mxCell>
        <mxCell id="vj8uwGmvX59yETp1Blwc-109" value="f否" style="edgeLabel;html=1;align=center;verticalAlign=middle;resizable=0;points=[];hachureGap=4;fontFamily=Architects Daughter;fontSource=https%3A%2F%2Ffonts.googleapis.com%2Fcss%3Ffamily%3DArchitects%2BDaughter;rounded=0;labelBackgroundColor=none;" parent="vj8uwGmvX59yETp1Blwc-108" vertex="1" connectable="0">
          <mxGeometry x="-0.1621" y="1" relative="1" as="geometry">
            <mxPoint as="offset" />
          </mxGeometry>
        </mxCell>
        <mxCell id="vj8uwGmvX59yETp1Blwc-111" style="edgeStyle=orthogonalEdgeStyle;rounded=0;hachureGap=4;orthogonalLoop=1;jettySize=auto;html=1;exitX=1;exitY=0.5;exitDx=0;exitDy=0;fontFamily=Architects Daughter;fontSource=https%3A%2F%2Ffonts.googleapis.com%2Fcss%3Ffamily%3DArchitects%2BDaughter;labelBackgroundColor=none;fontColor=default;" parent="1" source="vj8uwGmvX59yETp1Blwc-93" edge="1">
          <mxGeometry relative="1" as="geometry">
            <mxPoint x="572.782619310462" y="1110" as="targetPoint" />
          </mxGeometry>
        </mxCell>
        <mxCell id="vj8uwGmvX59yETp1Blwc-141" value="是" style="edgeLabel;html=1;align=center;verticalAlign=middle;resizable=0;points=[];hachureGap=4;fontFamily=Architects Daughter;fontSource=https%3A%2F%2Ffonts.googleapis.com%2Fcss%3Ffamily%3DArchitects%2BDaughter;rounded=0;labelBackgroundColor=none;" parent="vj8uwGmvX59yETp1Blwc-111" vertex="1" connectable="0">
          <mxGeometry x="-0.5192" y="-3" relative="1" as="geometry">
            <mxPoint as="offset" />
          </mxGeometry>
        </mxCell>
        <mxCell id="vj8uwGmvX59yETp1Blwc-93" value="判断所申请时间段是否已经具有用户申请审批成功" style="rhombus;whiteSpace=wrap;html=1;rounded=0;labelBackgroundColor=none;fillColor=#ffe6cc;strokeColor=#d79b00;" parent="1" vertex="1">
          <mxGeometry x="240" y="940" width="140" height="85" as="geometry" />
        </mxCell>
        <mxCell id="vj8uwGmvX59yETp1Blwc-125" style="edgeStyle=orthogonalEdgeStyle;rounded=0;hachureGap=4;orthogonalLoop=1;jettySize=auto;html=1;fontFamily=Architects Daughter;fontSource=https%3A%2F%2Ffonts.googleapis.com%2Fcss%3Ffamily%3DArchitects%2BDaughter;labelBackgroundColor=none;fontColor=default;" parent="1" source="vj8uwGmvX59yETp1Blwc-110" target="vj8uwGmvX59yETp1Blwc-124" edge="1">
          <mxGeometry relative="1" as="geometry" />
        </mxCell>
        <mxCell id="vj8uwGmvX59yETp1Blwc-110" value="校验成功" style="rounded=0;whiteSpace=wrap;html=1;labelBackgroundColor=none;fillColor=#f5f5f5;strokeColor=#666666;fontColor=#333333;" parent="1" vertex="1">
          <mxGeometry y="1112.5" width="120" height="70" as="geometry" />
        </mxCell>
        <mxCell id="vj8uwGmvX59yETp1Blwc-143" value="" style="edgeStyle=orthogonalEdgeStyle;rounded=0;hachureGap=4;orthogonalLoop=1;jettySize=auto;html=1;fontFamily=Architects Daughter;fontSource=https%3A%2F%2Ffonts.googleapis.com%2Fcss%3Ffamily%3DArchitects%2BDaughter;labelBackgroundColor=none;fontColor=default;" parent="1" source="vj8uwGmvX59yETp1Blwc-118" edge="1">
          <mxGeometry relative="1" as="geometry">
            <mxPoint x="575" y="1282.5" as="targetPoint" />
          </mxGeometry>
        </mxCell>
        <mxCell id="vj8uwGmvX59yETp1Blwc-144" value="是" style="edgeLabel;html=1;align=center;verticalAlign=middle;resizable=0;points=[];hachureGap=4;fontFamily=Architects Daughter;fontSource=https%3A%2F%2Ffonts.googleapis.com%2Fcss%3Ffamily%3DArchitects%2BDaughter;rounded=0;labelBackgroundColor=none;" parent="vj8uwGmvX59yETp1Blwc-143" vertex="1" connectable="0">
          <mxGeometry x="-0.2545" y="-3" relative="1" as="geometry">
            <mxPoint as="offset" />
          </mxGeometry>
        </mxCell>
        <mxCell id="vf4dBtLXXUb4eAfIZk2o-2" style="edgeStyle=orthogonalEdgeStyle;rounded=0;hachureGap=4;orthogonalLoop=1;jettySize=auto;html=1;exitX=1;exitY=0.5;exitDx=0;exitDy=0;entryX=0;entryY=0.5;entryDx=0;entryDy=0;fontFamily=Architects Daughter;fontSource=https%3A%2F%2Ffonts.googleapis.com%2Fcss%3Ffamily%3DArchitects%2BDaughter;labelBackgroundColor=none;fontColor=default;" parent="1" source="vj8uwGmvX59yETp1Blwc-118" target="vj8uwGmvX59yETp1Blwc-121" edge="1">
          <mxGeometry relative="1" as="geometry" />
        </mxCell>
        <mxCell id="vf4dBtLXXUb4eAfIZk2o-3" value="否" style="edgeLabel;html=1;align=center;verticalAlign=middle;resizable=0;points=[];hachureGap=4;fontFamily=Architects Daughter;fontSource=https%3A%2F%2Ffonts.googleapis.com%2Fcss%3Ffamily%3DArchitects%2BDaughter;rounded=0;labelBackgroundColor=none;" parent="vf4dBtLXXUb4eAfIZk2o-2" connectable="0" vertex="1">
          <mxGeometry x="-0.0363" y="-2" relative="1" as="geometry">
            <mxPoint as="offset" />
          </mxGeometry>
        </mxCell>
        <mxCell id="vj8uwGmvX59yETp1Blwc-118" value="用户已申请审批成功模板是否设置允许冲突" style="rhombus;whiteSpace=wrap;html=1;rounded=0;labelBackgroundColor=none;fillColor=#ffe6cc;strokeColor=#d79b00;" parent="1" vertex="1">
          <mxGeometry x="500" y="1105" width="150" height="85" as="geometry" />
        </mxCell>
        <mxCell id="vj8uwGmvX59yETp1Blwc-121" value="失败" style="whiteSpace=wrap;html=1;rounded=0;labelBackgroundColor=none;fillColor=#f5f5f5;fontColor=#333333;strokeColor=#666666;" parent="1" vertex="1">
          <mxGeometry x="730" y="1200" width="120" height="60" as="geometry" />
        </mxCell>
        <mxCell id="vj8uwGmvX59yETp1Blwc-130" value="" style="edgeStyle=orthogonalEdgeStyle;rounded=0;hachureGap=4;orthogonalLoop=1;jettySize=auto;html=1;fontFamily=Architects Daughter;fontSource=https%3A%2F%2Ffonts.googleapis.com%2Fcss%3Ffamily%3DArchitects%2BDaughter;labelBackgroundColor=none;fontColor=default;" parent="1" source="vj8uwGmvX59yETp1Blwc-124" target="vj8uwGmvX59yETp1Blwc-129" edge="1">
          <mxGeometry relative="1" as="geometry" />
        </mxCell>
        <mxCell id="vj8uwGmvX59yETp1Blwc-124" value="保存申请，待审批数据" style="rounded=0;whiteSpace=wrap;html=1;labelBackgroundColor=none;fillColor=#f5f5f5;fontColor=#333333;strokeColor=#666666;" parent="1" vertex="1">
          <mxGeometry x="250" y="1370" width="120" height="70" as="geometry" />
        </mxCell>
        <mxCell id="vj8uwGmvX59yETp1Blwc-131" style="edgeStyle=orthogonalEdgeStyle;rounded=0;hachureGap=4;orthogonalLoop=1;jettySize=auto;html=1;fontFamily=Architects Daughter;fontSource=https%3A%2F%2Ffonts.googleapis.com%2Fcss%3Ffamily%3DArchitects%2BDaughter;labelBackgroundColor=none;fontColor=default;" parent="1" source="vj8uwGmvX59yETp1Blwc-129" edge="1">
          <mxGeometry relative="1" as="geometry">
            <mxPoint x="19.999999999999886" y="1670" as="targetPoint" />
          </mxGeometry>
        </mxCell>
        <mxCell id="vj8uwGmvX59yETp1Blwc-133" value="否" style="edgeLabel;html=1;align=center;verticalAlign=middle;resizable=0;points=[];hachureGap=4;fontFamily=Architects Daughter;fontSource=https%3A%2F%2Ffonts.googleapis.com%2Fcss%3Ffamily%3DArchitects%2BDaughter;rounded=0;labelBackgroundColor=none;" parent="vj8uwGmvX59yETp1Blwc-131" vertex="1" connectable="0">
          <mxGeometry x="-0.0686" y="-1" relative="1" as="geometry">
            <mxPoint as="offset" />
          </mxGeometry>
        </mxCell>
        <mxCell id="vj8uwGmvX59yETp1Blwc-135" value="" style="edgeStyle=orthogonalEdgeStyle;rounded=0;hachureGap=4;orthogonalLoop=1;jettySize=auto;html=1;fontFamily=Architects Daughter;fontSource=https%3A%2F%2Ffonts.googleapis.com%2Fcss%3Ffamily%3DArchitects%2BDaughter;labelBackgroundColor=none;fontColor=default;" parent="1" source="vj8uwGmvX59yETp1Blwc-129" target="vj8uwGmvX59yETp1Blwc-134" edge="1">
          <mxGeometry relative="1" as="geometry" />
        </mxCell>
        <mxCell id="vj8uwGmvX59yETp1Blwc-155" value="是" style="edgeLabel;html=1;align=center;verticalAlign=middle;resizable=0;points=[];hachureGap=4;fontFamily=Architects Daughter;fontSource=https%3A%2F%2Ffonts.googleapis.com%2Fcss%3Ffamily%3DArchitects%2BDaughter;rounded=0;labelBackgroundColor=none;" parent="vj8uwGmvX59yETp1Blwc-135" vertex="1" connectable="0">
          <mxGeometry x="-0.2718" y="2" relative="1" as="geometry">
            <mxPoint as="offset" />
          </mxGeometry>
        </mxCell>
        <mxCell id="vj8uwGmvX59yETp1Blwc-129" value="是否设置自动审批" style="rhombus;whiteSpace=wrap;html=1;rounded=0;labelBackgroundColor=none;fillColor=#ffe6cc;strokeColor=#d79b00;" parent="1" vertex="1">
          <mxGeometry x="270" y="1515" width="80" height="80" as="geometry" />
        </mxCell>
        <mxCell id="vj8uwGmvX59yETp1Blwc-132" value="结束" style="rounded=0;whiteSpace=wrap;html=1;labelBackgroundColor=none;fillColor=#f8cecc;strokeColor=#b85450;" parent="1" vertex="1">
          <mxGeometry x="-40" y="1670" width="120" height="70" as="geometry" />
        </mxCell>
        <mxCell id="vj8uwGmvX59yETp1Blwc-137" value="" style="edgeStyle=orthogonalEdgeStyle;rounded=0;hachureGap=4;orthogonalLoop=1;jettySize=auto;html=1;fontFamily=Architects Daughter;fontSource=https%3A%2F%2Ffonts.googleapis.com%2Fcss%3Ffamily%3DArchitects%2BDaughter;labelBackgroundColor=none;fontColor=default;" parent="1" source="vj8uwGmvX59yETp1Blwc-134" target="vj8uwGmvX59yETp1Blwc-136" edge="1">
          <mxGeometry relative="1" as="geometry" />
        </mxCell>
        <mxCell id="vj8uwGmvX59yETp1Blwc-138" value="否" style="edgeLabel;html=1;align=center;verticalAlign=middle;resizable=0;points=[];hachureGap=4;fontFamily=Architects Daughter;fontSource=https%3A%2F%2Ffonts.googleapis.com%2Fcss%3Ffamily%3DArchitects%2BDaughter;rounded=0;labelBackgroundColor=none;" parent="vj8uwGmvX59yETp1Blwc-137" vertex="1" connectable="0">
          <mxGeometry x="-0.2299" relative="1" as="geometry">
            <mxPoint as="offset" />
          </mxGeometry>
        </mxCell>
        <mxCell id="vj8uwGmvX59yETp1Blwc-153" value="" style="edgeStyle=orthogonalEdgeStyle;rounded=0;hachureGap=4;orthogonalLoop=1;jettySize=auto;html=1;fontFamily=Architects Daughter;fontSource=https%3A%2F%2Ffonts.googleapis.com%2Fcss%3Ffamily%3DArchitects%2BDaughter;labelBackgroundColor=none;fontColor=default;" parent="1" source="vj8uwGmvX59yETp1Blwc-134" target="vj8uwGmvX59yETp1Blwc-152" edge="1">
          <mxGeometry relative="1" as="geometry" />
        </mxCell>
        <mxCell id="vj8uwGmvX59yETp1Blwc-154" value="是" style="edgeLabel;html=1;align=center;verticalAlign=middle;resizable=0;points=[];hachureGap=4;fontFamily=Architects Daughter;fontSource=https%3A%2F%2Ffonts.googleapis.com%2Fcss%3Ffamily%3DArchitects%2BDaughter;rounded=0;labelBackgroundColor=none;" parent="vj8uwGmvX59yETp1Blwc-153" vertex="1" connectable="0">
          <mxGeometry x="-0.1536" y="-1" relative="1" as="geometry">
            <mxPoint as="offset" />
          </mxGeometry>
        </mxCell>
        <mxCell id="vj8uwGmvX59yETp1Blwc-134" value="是否申请时间具有冲突" style="rhombus;whiteSpace=wrap;html=1;rounded=0;labelBackgroundColor=none;fillColor=#ffe6cc;strokeColor=#d79b00;" parent="1" vertex="1">
          <mxGeometry x="510" y="1654" width="80" height="76" as="geometry" />
        </mxCell>
        <mxCell id="vj8uwGmvX59yETp1Blwc-156" style="edgeStyle=orthogonalEdgeStyle;rounded=0;hachureGap=4;orthogonalLoop=1;jettySize=auto;html=1;fontFamily=Architects Daughter;fontSource=https%3A%2F%2Ffonts.googleapis.com%2Fcss%3Ffamily%3DArchitects%2BDaughter;labelBackgroundColor=none;fontColor=default;" parent="1" source="vj8uwGmvX59yETp1Blwc-136" target="vj8uwGmvX59yETp1Blwc-140" edge="1">
          <mxGeometry relative="1" as="geometry" />
        </mxCell>
        <mxCell id="vj8uwGmvX59yETp1Blwc-136" value="保存审批成功数据，修改申请，审批状态为已通过" style="whiteSpace=wrap;html=1;rounded=0;labelBackgroundColor=none;fillColor=#f5f5f5;fontColor=#333333;strokeColor=#666666;" parent="1" vertex="1">
          <mxGeometry x="330" y="1750" width="120" height="60" as="geometry" />
        </mxCell>
        <mxCell id="vj8uwGmvX59yETp1Blwc-140" value="结束" style="whiteSpace=wrap;html=1;rounded=0;labelBackgroundColor=none;fillColor=#f8cecc;strokeColor=#b85450;" parent="1" vertex="1">
          <mxGeometry x="510" y="1980" width="120" height="60" as="geometry" />
        </mxCell>
        <mxCell id="vj8uwGmvX59yETp1Blwc-148" style="edgeStyle=orthogonalEdgeStyle;rounded=0;hachureGap=4;orthogonalLoop=1;jettySize=auto;html=1;exitX=1;exitY=0.5;exitDx=0;exitDy=0;entryX=0;entryY=0.5;entryDx=0;entryDy=0;fontFamily=Architects Daughter;fontSource=https%3A%2F%2Ffonts.googleapis.com%2Fcss%3Ffamily%3DArchitects%2BDaughter;labelBackgroundColor=none;fontColor=default;" parent="1" source="vj8uwGmvX59yETp1Blwc-146" target="vj8uwGmvX59yETp1Blwc-121" edge="1">
          <mxGeometry relative="1" as="geometry" />
        </mxCell>
        <mxCell id="vj8uwGmvX59yETp1Blwc-149" value="否" style="edgeLabel;html=1;align=center;verticalAlign=middle;resizable=0;points=[];hachureGap=4;fontFamily=Architects Daughter;fontSource=https%3A%2F%2Ffonts.googleapis.com%2Fcss%3Ffamily%3DArchitects%2BDaughter;rounded=0;labelBackgroundColor=none;" parent="vj8uwGmvX59yETp1Blwc-148" vertex="1" connectable="0">
          <mxGeometry x="0.1165" y="-1" relative="1" as="geometry">
            <mxPoint as="offset" />
          </mxGeometry>
        </mxCell>
        <mxCell id="vj8uwGmvX59yETp1Blwc-151" style="edgeStyle=orthogonalEdgeStyle;rounded=0;hachureGap=4;orthogonalLoop=1;jettySize=auto;html=1;exitX=0.5;exitY=1;exitDx=0;exitDy=0;entryX=1;entryY=0.5;entryDx=0;entryDy=0;fontFamily=Architects Daughter;fontSource=https%3A%2F%2Ffonts.googleapis.com%2Fcss%3Ffamily%3DArchitects%2BDaughter;labelBackgroundColor=none;fontColor=default;" parent="1" source="vj8uwGmvX59yETp1Blwc-146" target="vj8uwGmvX59yETp1Blwc-124" edge="1">
          <mxGeometry relative="1" as="geometry" />
        </mxCell>
        <mxCell id="vj8uwGmvX59yETp1Blwc-146" value="申请时间是否在已审批成功用户申请时间范围的子集" style="rhombus;whiteSpace=wrap;html=1;rounded=0;labelBackgroundColor=none;fillColor=#ffe6cc;strokeColor=#d79b00;" parent="1" vertex="1">
          <mxGeometry x="500" y="1280" width="150" height="85" as="geometry" />
        </mxCell>
        <mxCell id="NddDFo-Vzx118pYCFe8i-1" style="edgeStyle=orthogonalEdgeStyle;rounded=0;orthogonalLoop=1;jettySize=auto;html=1;exitX=0;exitY=0.5;exitDx=0;exitDy=0;entryX=0.5;entryY=0;entryDx=0;entryDy=0;" edge="1" parent="1" source="vj8uwGmvX59yETp1Blwc-152" target="vj8uwGmvX59yETp1Blwc-140">
          <mxGeometry relative="1" as="geometry" />
        </mxCell>
        <mxCell id="vj8uwGmvX59yETp1Blwc-152" value="修改审批组织id为先通过的模板冲突审批组织id列表" style="whiteSpace=wrap;html=1;rounded=0;labelBackgroundColor=none;fillColor=#f5f5f5;fontColor=#333333;strokeColor=#666666;" parent="1" vertex="1">
          <mxGeometry x="660" y="1750" width="120" height="60" as="geometry" />
        </mxCell>
      </root>
    </mxGraphModel>
  </diagram>
</mxfile>
